<svg xmlns="http://www.w3.org/2000/svg" version="1.1" xmlns:xlink="http://www.w3.org/1999/xlink" xmlns:svgjs="http://svgjs.dev/svgjs" width="1000" height="222" viewBox="0 0 1000 222"><g transform="matrix(1,0,0,1,-0.6060606060606233,0.3665342605190318)"><svg viewBox="0 0 396 88" data-background-color="#a437db" preserveAspectRatio="xMidYMid meet" height="222" width="1000" xmlns="http://www.w3.org/2000/svg" xmlns:xlink="http://www.w3.org/1999/xlink"><g id="tight-bounds" transform="matrix(1,0,0,1,0.2400000000000091,-0.1452928600255632)"><svg viewBox="0 0 395.52 88.29058572005115" height="88.29058572005115" width="395.52"><g><svg viewBox="0 0 395.52 88.29058572005115" height="88.29058572005115" width="395.52"><g transform="matrix(1,0,0,1,0,54.56712401762115)"><svg viewBox="0 0 395.52 33.723461702430015" height="33.723461702430015" width="395.52"><g id="textblocktransform"><svg viewBox="0 0 395.52 33.723461702430015" height="33.723461702430015" width="395.52" id="textblock"><g><svg viewBox="0 0 395.52 33.723461702430015" height="33.723461702430015" width="395.52"><g transform="matrix(1,0,0,1,0,0)"><svg width="395.52" viewBox="2.27 -42.19 515.37 43.949999999999996" height="33.723461702430015" data-palette-color="#ef4100"><path d="M15.55-18.36L15.55-20.12 26.15-20.12Q28.56-20.12 30.24-21.68 31.91-23.24 31.91-26.12L31.91-26.12Q31.91-28.25 30.15-29.94 28.39-31.64 26.15-31.64L26.15-31.64 11.06-31.64 11.06 0 9.3 0 9.3-33.4 26.15-33.4Q29.13-33.4 31.4-31.19 33.67-28.98 33.67-26.12L33.67-26.12Q33.67-22.61 31.47-20.48 29.27-18.36 26.15-18.36L26.15-18.36 15.55-18.36ZM15.55-14.84L15.55-16.6 26.15-16.6Q29.96-16.6 32.69-19.27 35.42-21.95 35.42-26.12L35.42-26.12Q35.42-29.71 32.63-32.43 29.83-35.16 26.15-35.16L26.15-35.16 7.54-35.16 7.54 0 5.79 0 5.79-36.91 26.15-36.91Q29.05-36.91 31.6-35.42 34.16-33.94 35.67-31.43 37.18-28.93 37.18-26.12L37.18-26.12Q37.18-21.31 33.92-18.08 30.66-14.84 26.15-14.84L26.15-14.84 15.55-14.84ZM15.55-11.33L15.55-13.09 26.15-13.09Q29.57-13.09 32.5-14.77 35.42-16.46 37.18-19.47 38.94-22.49 38.94-26.12L38.94-26.12Q38.94-29.42 37.19-32.31 35.45-35.21 32.5-36.94 29.54-38.67 26.15-38.67L26.15-38.67 4.03-38.67 4.03 0 2.27 0 2.27-40.43 26.15-40.43Q29.98-40.43 33.35-38.46 36.72-36.5 38.71-33.19 40.7-29.88 40.7-26.12L40.7-26.12Q40.7-21.78 38.83-18.48 36.96-15.19 33.76-13.33L33.76-13.33 38.31 0 36.45 0 32.1-12.5Q31.13-12.11 30.62-11.96L30.62-11.96 34.69 0 32.84 0 28.86-11.55Q28.64-11.5 27.29-11.38L27.29-11.38 31.08 0 29.22 0 25.49-11.33 23.9-11.33 27.47 0 25.61 0 22.02-11.33 15.55-11.33ZM14.58-28.13L14.58 0 12.82 0 12.82-29.88 26.15-29.88Q27.78-29.88 28.97-28.77 30.15-27.66 30.15-26.12L30.15-26.12Q30.15-21.88 26.15-21.88L26.15-21.88 15.55-21.88 15.55-23.63 26.15-23.63Q27.2-23.63 27.8-24.18 28.39-24.73 28.39-26.12L28.39-26.12Q28.39-26.98 27.75-27.55 27.1-28.13 26.15-28.13L26.15-28.13 14.58-28.13ZM55 0L55-40.43 56.76-40.43 56.76 0 55 0ZM51.49 0L51.49-40.43 53.24-40.43 53.24 0 51.49 0ZM47.97 0L47.97-40.43 49.73-40.43 49.73 0 47.97 0ZM44.46 0L44.46-40.43 46.21-40.43 46.21 0 44.46 0ZM83.93-10.55L71.94-10.55 71.94-29.88Q71.94-29.88 83.93-29.88L83.93-29.88Q86.84-29.88 88.92-27.04 91.01-24.19 91.01-20.21L91.01-20.21Q91.01-16.21 88.92-13.38 86.84-10.55 83.93-10.55L83.93-10.55ZM73.7-28.13L73.7-12.3 83.93-12.3Q86.1-12.3 87.65-14.62 89.2-16.94 89.2-20.21L89.2-20.21Q89.2-23.51 87.65-25.82 86.1-28.13 83.93-28.13L83.93-28.13 73.7-28.13ZM70.19-31.64L70.19-8.79 83.93-8.79Q87.57-8.79 90.19-12.15 92.82-15.5 92.82-20.21L92.82-20.21Q92.82-23.32 91.61-25.95 90.4-28.59 88.36-30.11 86.32-31.64 83.93-31.64L83.93-31.64 70.19-31.64ZM83.93-7.03L68.43-7.03 68.43-33.4 83.93-33.4Q86.79-33.4 89.25-31.64 91.72-29.88 93.17-26.84 94.62-23.8 94.62-20.21L94.62-20.21Q94.62-16.65 93.17-13.6 91.72-10.55 89.25-8.79 86.79-7.03 83.93-7.03L83.93-7.03ZM66.67-35.16L66.67-5.27 83.93-5.27Q87.28-5.27 90.14-7.28 93.01-9.28 94.72-12.72 96.43-16.16 96.43-20.21L96.43-20.21Q96.43-24.24 94.72-27.7 93.01-31.15 90.13-33.15 87.25-35.16 83.93-35.16L83.93-35.16 66.67-35.16ZM83.93-3.52L64.91-3.52 64.91-36.91 83.93-36.91Q87.74-36.91 91.04-34.68 94.33-32.45 96.28-28.59 98.24-24.73 98.24-20.21 98.24-15.7 96.28-11.84 94.33-7.98 91.04-5.75 87.74-3.52 83.93-3.52L83.93-3.52ZM63.15-38.67L63.15-1.76 83.93-1.76Q87.13-1.76 90.11-3.22 93.09-4.69 95.26-7.15 97.43-9.62 98.74-13.05 100.04-16.48 100.04-20.21 100.04-23.95 98.74-27.37 97.43-30.79 95.26-33.26 93.09-35.74 90.11-37.21 87.13-38.67 83.93-38.67L83.93-38.67 63.15-38.67ZM83.93 0L83.93 0 61.4 0 61.4-40.43 83.93-40.43Q88.69-40.43 92.82-37.72 96.94-35.01 99.4-30.35 101.85-25.68 101.85-20.21L101.85-20.21Q101.85-16.11 100.4-12.37 98.95-8.62 96.53-5.91 94.11-3.2 90.8-1.6 87.5 0 83.93 0ZM114.49-40.43L114.49 0 112.74 0 112.74-40.43 114.49-40.43ZM110.98-40.43L110.98 0 109.22 0 109.22-40.43 110.98-40.43ZM107.46-40.43L107.46 0 105.71 0 105.71-40.43 107.46-40.43ZM118.01-15.82L118.01-8.79 136.71-8.79 136.71-7.03 118.01-7.03 118.01-5.27 136.71-5.27 136.71-3.52 118.01-3.52 118.01-1.76 136.71-1.76 136.71 0 116.25 0 116.25-40.43 136.71-40.43 136.71-38.67 118.01-38.67 118.01-36.91 136.71-36.91 136.71-35.16 118.01-35.16 118.01-33.4 136.71-33.4 136.71-31.64 118.01-31.64 118.01-24.61 127.6-24.61 127.6-22.85 118.01-22.85 118.01-21.09 127.6-21.09 127.6-19.34 118.01-19.34 118.01-17.58 127.6-17.58 127.6-15.82 118.01-15.82ZM154.31-18.36L154.31-20.12 164.91-20.12Q167.32-20.12 169-21.68 170.67-23.24 170.67-26.12L170.67-26.12Q170.67-28.25 168.91-29.94 167.15-31.64 164.91-31.64L164.91-31.64 149.82-31.64 149.82 0 148.06 0 148.06-33.4 164.91-33.4Q167.89-33.4 170.16-31.19 172.43-28.98 172.43-26.12L172.43-26.12Q172.43-22.61 170.23-20.48 168.03-18.36 164.91-18.36L164.91-18.36 154.31-18.36ZM154.31-14.84L154.31-16.6 164.91-16.6Q168.72-16.6 171.45-19.27 174.18-21.95 174.18-26.12L174.18-26.12Q174.18-29.71 171.39-32.43 168.59-35.16 164.91-35.16L164.91-35.16 146.3-35.16 146.3 0 144.55 0 144.55-36.91 164.91-36.91Q167.81-36.91 170.36-35.42 172.91-33.94 174.43-31.43 175.94-28.93 175.94-26.12L175.94-26.12Q175.94-21.31 172.68-18.08 169.42-14.84 164.91-14.84L164.91-14.84 154.31-14.84ZM154.31-11.33L154.31-13.09 164.91-13.09Q168.32-13.09 171.25-14.77 174.18-16.46 175.94-19.47 177.7-22.49 177.7-26.12L177.7-26.12Q177.7-29.42 175.95-32.31 174.21-35.21 171.25-36.94 168.3-38.67 164.91-38.67L164.91-38.67 142.79-38.67 142.79 0 141.03 0 141.03-40.43 164.91-40.43Q168.74-40.43 172.11-38.46 175.48-36.5 177.47-33.19 179.46-29.88 179.46-26.12L179.46-26.12Q179.46-21.78 177.59-18.48 175.72-15.19 172.52-13.33L172.52-13.33 177.07 0 175.21 0 170.86-12.5Q169.89-12.11 169.37-11.96L169.37-11.96 173.45 0 171.6 0 167.62-11.55Q167.4-11.5 166.05-11.38L166.05-11.38 169.84 0 167.98 0 164.25-11.33 162.66-11.33 166.23 0 164.37 0 160.78-11.33 154.31-11.33ZM153.33-28.13L153.33 0 151.58 0 151.58-29.88 164.91-29.88Q166.54-29.88 167.73-28.77 168.91-27.66 168.91-26.12L168.91-26.12Q168.91-21.88 164.91-21.88L164.91-21.88 154.31-21.88 154.31-23.63 164.91-23.63Q165.96-23.63 166.55-24.18 167.15-24.73 167.15-26.12L167.15-26.12Q167.15-26.98 166.51-27.55 165.86-28.13 164.91-28.13L164.91-28.13 153.33-28.13ZM192-40.43L192 0 190.25 0 190.25-40.43 192-40.43ZM188.49-40.43L188.49 0 186.73 0 186.73-40.43 188.49-40.43ZM184.97-40.43L184.97 0 183.22 0 183.22-40.43 184.97-40.43ZM195.52-15.82L195.52-8.79 214.22-8.79 214.22-7.03 195.52-7.03 195.52-5.27 214.22-5.27 214.22-3.52 195.52-3.52 195.52-1.76 214.22-1.76 214.22 0 193.76 0 193.76-40.43 214.22-40.43 214.22-38.67 195.52-38.67 195.52-36.91 214.22-36.91 214.22-35.16 195.52-35.16 195.52-33.4 214.22-33.4 214.22-31.64 195.52-31.64 195.52-24.61 205.11-24.61 205.11-22.85 195.52-22.85 195.52-21.09 205.11-21.09 205.11-19.34 195.52-19.34 195.52-17.58 205.11-17.58 205.11-15.82 195.52-15.82ZM233.16 0L217.17-40.43 219.08-40.43 234.12-2.37 249.15-40.43 251.03-40.43 235.07 0 233.16 0ZM222.84-40.43L235.34-8.79 234.34-6.54 220.96-40.43 222.84-40.43ZM226.65-40.43L237.22-13.6 236.29-11.18 224.74-40.43 226.65-40.43ZM230.4-40.43L239.07-18.48 238.14-16.02 228.53-40.43 230.4-40.43ZM244.52 0L260.48-40.43 262.39-40.43 246.4 0 244.52 0ZM240.73 0L256.72-40.43 258.6-40.43 242.61 0 240.73 0ZM236.95 0L252.91-40.43 254.82-40.43 238.83 0 236.95 0ZM277.25-27.05Q274.42-24.22 274.42-20.21 274.42-16.21 277.25-13.38 280.09-10.55 284.09-10.55 288.09-10.55 290.92-13.38 293.76-16.21 293.76-20.21 293.76-24.22 290.92-27.05 288.09-29.88 284.09-29.88 280.09-29.88 277.25-27.05ZM273.57-15.78Q272.66-17.9 272.66-20.21 272.66-22.53 273.57-24.65 274.47-26.76 276.01-28.3 277.55-29.83 279.66-30.74 281.77-31.64 284.09-31.64 286.41-31.64 288.52-30.74 290.63-29.83 292.17-28.3 293.71-26.76 294.61-24.65 295.51-22.53 295.51-20.21 295.51-17.9 294.61-15.78 293.71-13.67 292.17-12.13 290.63-10.6 288.52-9.69 286.41-8.79 284.09-8.79 281.77-8.79 279.66-9.69 277.55-10.6 276.01-12.13 274.47-13.67 273.57-15.78ZM272.68-26.83Q270.91-23.8 270.91-20.21 270.91-16.63 272.68-13.6 274.45-10.57 277.47-8.8 280.5-7.03 284.09-7.03 287.68-7.03 290.71-8.8 293.73-10.57 295.5-13.6 297.27-16.63 297.27-20.21 297.27-23.8 295.5-26.83 293.73-29.86 290.71-31.63 287.68-33.4 284.09-33.4 280.5-33.4 277.47-31.63 274.45-29.86 272.68-26.83ZM271.15-12.72Q269.15-16.16 269.15-20.21 269.15-24.27 271.15-27.71 273.15-31.15 276.59-33.15 280.04-35.16 284.09-35.16 288.14-35.16 291.58-33.15 295.03-31.15 297.03-27.71 299.03-24.27 299.03-20.21 299.03-16.16 297.03-12.72 295.03-9.28 291.58-7.28 288.14-5.27 284.09-5.27 280.04-5.27 276.59-7.28 273.15-9.28 271.15-12.72ZM268.71-26.71Q267.39-23.61 267.39-20.21 267.39-16.82 268.71-13.72 270.03-10.62 272.26-8.39 274.49-6.15 277.59-4.83 280.7-3.52 284.09-3.52 287.48-3.52 290.58-4.83 293.68-6.15 295.92-8.39 298.15-10.62 299.47-13.72 300.79-16.82 300.79-20.21 300.79-23.61 299.47-26.71 298.15-29.81 295.92-32.04 293.68-34.28 290.58-35.6 287.48-36.91 284.09-36.91 280.7-36.91 277.59-35.6 274.49-34.28 272.26-32.04 270.03-29.81 268.71-26.71ZM268.11-10.96Q265.63-15.21 265.63-20.21 265.63-25.22 268.11-29.47 270.59-33.72 274.84-36.19 279.08-38.67 284.09-38.67 289.09-38.67 293.34-36.19 297.59-33.72 300.07-29.47 302.55-25.22 302.55-20.21 302.55-15.21 300.07-10.96 297.59-6.71 293.34-4.24 289.09-1.76 284.09-1.76 279.08-1.76 274.84-4.24 270.59-6.71 268.11-10.96ZM265.47-28.06Q263.87-24.32 263.87-20.21 263.87-16.11 265.47-12.37 267.07-8.62 269.78-5.91 272.49-3.2 276.24-1.6 279.99 0 284.09 0 288.19 0 291.94-1.6 295.69-3.2 298.4-5.91 301.11-8.62 302.7-12.37 304.3-16.11 304.3-20.21 304.3-24.32 302.7-28.06 301.11-31.81 298.4-34.52 295.69-37.23 291.94-38.83 288.19-40.43 284.09-40.43 279.99-40.43 276.24-38.83 272.49-37.23 269.78-34.52 267.07-31.81 265.47-28.06ZM263.86-11.68Q262.12-15.75 262.12-20.21 262.12-24.68 263.86-28.75 265.61-32.81 268.55-35.75 271.49-38.7 275.56-40.44 279.62-42.19 284.09-42.19 288.56-42.19 292.62-40.44 296.69-38.7 299.63-35.75 302.57-32.81 304.32-28.75 306.06-24.68 306.06-20.21 306.06-15.75 304.32-11.68 302.57-7.62 299.63-4.68 296.69-1.73 292.62 0.01 288.56 1.76 284.09 1.76 279.62 1.76 275.56 0.01 271.49-1.73 268.55-4.68 265.61-7.62 263.86-11.68ZM309.7 0L309.7-40.43 311.45-40.43 311.45 0 309.7 0ZM320.24 0L320.24-40.43 322-40.43 322-8.79 336.06-8.79 336.06-7.03 322-7.03 322-5.27 336.06-5.27 336.06-3.52 322-3.52 322-1.76 336.06-1.76 336.06 0 320.24 0ZM316.73 0L316.73-40.43 318.49-40.43 318.49 0 316.73 0ZM313.21 0L313.21-40.43 314.97-40.43 314.97 0 313.21 0ZM368.41-17.77L368.41-17.77 368.41-40.43 370.17-40.43 370.17-17.77Q370.17-14.06 367.24-11.43 364.31-8.79 360.21-8.79 356.11-8.79 353.18-11.43 350.25-14.06 350.25-17.77L350.25-17.77 350.25-40.43 352-40.43 352-17.77Q352-14.79 354.41-12.67 356.81-10.55 360.21-10.55 363.6-10.55 366.01-12.67 368.41-14.79 368.41-17.77ZM371.93-17.77L371.93-17.77 371.93-40.43 373.68-40.43 373.68-17.77Q373.68-15.23 372.61-12.93 371.54-10.62 369.73-8.94 367.92-7.25 365.43-6.26 362.94-5.27 360.21-5.27 357.47-5.27 354.98-6.26 352.49-7.25 350.69-8.94 348.88-10.62 347.8-12.93 346.73-15.23 346.73-17.77L346.73-17.77 346.73-40.43 348.49-40.43 348.49-17.77Q348.49-14.87 350.06-12.39 351.64-9.91 354.34-8.47 357.03-7.03 360.21-7.03 363.38-7.03 366.08-8.47 368.78-9.91 370.35-12.39 371.93-14.87 371.93-17.77ZM375.44-17.77L375.44-17.77 375.44-40.43 377.2-40.43 377.2-17.77Q377.2-14.53 375.84-11.56 374.49-8.59 372.22-6.45 369.95-4.3 366.8-3.03 363.65-1.76 360.21-1.76 356.76-1.76 353.62-3.03 350.47-4.3 348.2-6.45 345.92-8.59 344.57-11.56 343.21-14.53 343.21-17.77L343.21-17.77 343.21-40.43 344.97-40.43 344.97-17.77Q344.97-13.92 347.02-10.63 349.07-7.35 352.58-5.43 356.08-3.52 360.21-3.52 364.33-3.52 367.84-5.43 371.34-7.35 373.39-10.63 375.44-13.92 375.44-17.77ZM378.96-17.77L378.96-17.77 378.96-40.43 380.71-40.43 380.71-17.77Q380.71-12.5 377.96-8 375.2-3.49 370.47-0.87 365.75 1.76 360.21 1.76 354.67 1.76 349.94-0.87 345.22-3.49 342.46-8 339.7-12.5 339.7-17.77L339.7-17.77 339.7-40.43 341.46-40.43 341.46-17.77Q341.46-14.18 342.95-10.89 344.44-7.59 346.95-5.21 349.46-2.83 352.94-1.42 356.42 0 360.21 0 363.99 0 367.47-1.42 370.95-2.83 373.46-5.21 375.98-7.59 377.47-10.89 378.96-14.18 378.96-17.77ZM410.79-38.67L384.42-38.67 384.42-40.43 410.79-40.43 410.79-38.67ZM410.79-35.16L384.42-35.16 384.42-36.91 410.79-36.91 410.79-35.16ZM391.45-31.64L384.42-31.64 384.42-33.4 410.79-33.4 410.79-31.64 403.76-31.64 403.76 0 402 0 402-31.64 400.24-31.64 400.24 0 398.49 0 398.49-31.64 396.73-31.64 396.73 0 394.97 0 394.97-31.64 393.21-31.64 393.21 0 391.45 0 391.45-31.64ZM425.31 0L425.31-40.43 427.07-40.43 427.07 0 425.31 0ZM421.8 0L421.8-40.43 423.56-40.43 423.56 0 421.8 0ZM418.28 0L418.28-40.43 420.04-40.43 420.04 0 418.28 0ZM414.77 0L414.77-40.43 416.53-40.43 416.53 0 414.77 0ZM445.94-27.05Q443.11-24.22 443.11-20.21 443.11-16.21 445.94-13.38 448.77-10.55 452.78-10.55 456.78-10.55 459.61-13.38 462.45-16.21 462.45-20.21 462.45-24.22 459.61-27.05 456.78-29.88 452.78-29.88 448.77-29.88 445.94-27.05ZM442.26-15.78Q441.35-17.9 441.35-20.21 441.35-22.53 442.26-24.65 443.16-26.76 444.7-28.3 446.23-29.83 448.35-30.74 450.46-31.64 452.78-31.64 455.1-31.64 457.21-30.74 459.32-29.83 460.86-28.3 462.4-26.76 463.3-24.65 464.2-22.53 464.2-20.21 464.2-17.9 463.3-15.78 462.4-13.67 460.86-12.13 459.32-10.6 457.21-9.69 455.1-8.79 452.78-8.79 450.46-8.79 448.35-9.69 446.23-10.6 444.7-12.13 443.16-13.67 442.26-15.78ZM441.36-26.83Q439.59-23.8 439.59-20.21 439.59-16.63 441.36-13.6 443.13-10.57 446.16-8.8 449.19-7.03 452.78-7.03 456.37-7.03 459.39-8.8 462.42-10.57 464.19-13.6 465.96-16.63 465.96-20.21 465.96-23.8 464.19-26.83 462.42-29.86 459.39-31.63 456.37-33.4 452.78-33.4 449.19-33.4 446.16-31.63 443.13-29.86 441.36-26.83ZM439.84-12.72Q437.84-16.16 437.84-20.21 437.84-24.27 439.84-27.71 441.84-31.15 445.28-33.15 448.72-35.16 452.78-35.16 456.83-35.16 460.27-33.15 463.72-31.15 465.72-27.71 467.72-24.27 467.72-20.21 467.72-16.16 465.72-12.72 463.72-9.28 460.27-7.28 456.83-5.27 452.78-5.27 448.72-5.27 445.28-7.28 441.84-9.28 439.84-12.72ZM437.4-26.71Q436.08-23.61 436.08-20.21 436.08-16.82 437.4-13.72 438.72-10.62 440.95-8.39 443.18-6.15 446.28-4.83 449.38-3.52 452.78-3.52 456.17-3.52 459.27-4.83 462.37-6.15 464.61-8.39 466.84-10.62 468.16-13.72 469.48-16.82 469.48-20.21 469.48-23.61 468.16-26.71 466.84-29.81 464.61-32.04 462.37-34.28 459.27-35.6 456.17-36.91 452.78-36.91 449.38-36.91 446.28-35.6 443.18-34.28 440.95-32.04 438.72-29.81 437.4-26.71ZM436.8-10.96Q434.32-15.21 434.32-20.21 434.32-25.22 436.8-29.47 439.28-33.72 443.52-36.19 447.77-38.67 452.78-38.67 457.78-38.67 462.03-36.19 466.28-33.72 468.76-29.47 471.23-25.22 471.23-20.21 471.23-15.21 468.76-10.96 466.28-6.71 462.03-4.24 457.78-1.76 452.78-1.76 447.77-1.76 443.52-4.24 439.28-6.71 436.8-10.96ZM434.16-28.06Q432.56-24.32 432.56-20.21 432.56-16.11 434.16-12.37 435.76-8.62 438.47-5.91 441.18-3.2 444.93-1.6 448.68 0 452.78 0 456.88 0 460.63-1.6 464.37-3.2 467.08-5.91 469.79-8.62 471.39-12.37 472.99-16.11 472.99-20.21 472.99-24.32 471.39-28.06 469.79-31.81 467.08-34.52 464.37-37.23 460.63-38.83 456.88-40.43 452.78-40.43 448.68-40.43 444.93-38.83 441.18-37.23 438.47-34.52 435.76-31.81 434.16-28.06ZM432.55-11.68Q430.8-15.75 430.8-20.21 430.8-24.68 432.55-28.75 434.3-32.81 437.24-35.75 440.18-38.7 444.24-40.44 448.31-42.19 452.78-42.19 457.25-42.19 461.31-40.44 465.38-38.7 468.32-35.75 471.26-32.81 473-28.75 474.75-24.68 474.75-20.21 474.75-15.75 473-11.68 471.26-7.62 468.32-4.68 465.38-1.73 461.31 0.01 457.25 1.76 452.78 1.76 448.31 1.76 444.24 0.01 440.18-1.73 437.24-4.68 434.3-7.62 432.55-11.68ZM507.1-40.43L507.1-19.46 505.34-22.36 505.34-40.43 507.1-40.43ZM510.61-40.43L510.61-13.7 508.85-16.65 508.85-40.43 510.61-40.43ZM514.13-40.43L514.13-7.86 512.37-10.84 512.37-40.43 514.13-40.43ZM488.93 0L488.93-20.97 490.69-18.07 490.69 0 488.93 0ZM485.42 0L485.42-26.73 487.17-23.78 487.17 0 485.42 0ZM481.9 0L481.9-32.57 483.66-29.59 483.66 0 481.9 0ZM507.36 0L482.51-40.43 484.56-40.43 509.42 0 507.36 0ZM511.47 0L486.66-40.43 488.74-40.43 513.57 0 511.47 0ZM515.57 0L490.79-40.43 492.84-40.43 515.89-2.86 515.89-40.43 517.64-40.43 517.64 0Q517.64 0 515.57 0L515.57 0ZM503.24 0L480.14-37.57 480.14 0 478.39 0 478.39-40.43Q478.39-40.43 480.49-40.43L480.49-40.43 505.27 0 503.24 0Z" opacity="1" transform="matrix(1,0,0,1,0,0)" fill="#ef4100" class="undefined-text-0" data-fill-palette-color="primary" id="text-0"></path></svg></g></svg></g></svg></g></svg></g><g transform="matrix(1,0,0,1,146.4024919674116,0)"><svg viewBox="0 0 102.71501606517677 46.60582407275828" height="46.60582407275828" width="102.71501606517677"><g><svg xmlns="http://www.w3.org/2000/svg" xmlns:xlink="http://www.w3.org/1999/xlink" version="1.1" x="8" y="0" viewBox="-345.99999999999994 278.69590592485895 99.64299999999992 53.55409407514111" enable-background="new -346 256 100 100" xml:space="preserve" height="46.60582407275828" width="86.71501606517677" class="icon-icon-0" data-fill-palette-color="accent" id="icon-0"><g fill="#00aeef" data-fill-palette-color="accent"><path d="M-272.348 316.183c1.828-1.791 4.051-2.701 6.609-2.701 2.631 0 4.896 0.91 6.735 2.701 1.834 1.809 2.766 4.054 2.766 6.677 0 2.561-0.93 4.788-2.766 6.619-1.833 1.84-4.099 2.771-6.735 2.771-2.559 0-4.788-0.932-6.617-2.77-1.832-1.831-2.765-4.058-2.765-6.621C-275.12 320.232-274.188 317.986-272.348 316.183zM-268.521 325.658c0.768 0.774 1.699 1.149 2.782 1.149 1.085 0 2.014-0.375 2.786-1.149 0.774-0.776 1.159-1.701 1.159-2.799 0-1.074-0.385-2.001-1.159-2.775-0.772-0.774-1.701-1.17-2.786-1.17-1.083 0-2.015 0.396-2.782 1.17-0.774 0.774-1.163 1.701-1.163 2.775C-269.684 323.957-269.295 324.882-268.521 325.658z" fill="#00aeef" data-fill-palette-color="accent"></path><path d="M-320.007 316.183c-1.827-1.791-4.052-2.701-6.61-2.701-2.63 0-4.896 0.91-6.736 2.701-1.831 1.809-2.766 4.054-2.766 6.677 0 2.561 0.932 4.788 2.766 6.619 1.834 1.84 4.099 2.771 6.736 2.771 2.559 0 4.787-0.932 6.618-2.77 1.834-1.831 2.762-4.058 2.762-6.621C-317.238 320.232-318.166 317.986-320.007 316.183zM-323.835 325.658c-0.77 0.774-1.697 1.149-2.783 1.149-1.085 0-2.013-0.375-2.786-1.149-0.776-0.776-1.159-1.701-1.159-2.799 0-1.074 0.383-2.001 1.159-2.775 0.772-0.774 1.701-1.17 2.786-1.17 1.085 0 2.013 0.396 2.783 1.17 0.774 0.774 1.161 1.701 1.161 2.775C-322.674 323.957-323.061 324.882-323.835 325.658z" fill="#00aeef" data-fill-palette-color="accent"></path><g fill="#00aeef" data-fill-palette-color="accent"><path d="M-299.606 291.167c2.771 0 5.03-2.254 5.03-5.027 0-2.786-2.253-5.042-5.03-5.042-2.784 0-5.036 2.253-5.036 5.042C-304.642 288.913-302.391 291.167-299.606 291.167z" fill="#00aeef" data-fill-palette-color="accent"></path><path d="M-249.144 312.303v-4.375c0 0 0-1.952 0-2.938h0.017v-0.991c0-3.422-3.012-6.191-6.731-6.191h-18.99c0 0-13.591-17.991-13.596-17.998 0 0-1.403-1.865-3.046-0.769-1.387 0.924-0.179 3.008 0.041 3.369l9.973 13.439c0.132 0.196 0.204 0.419 0.204 0.7 0 0.798-0.408 1.193-1.205 1.193l-8.263 0.011 1.66-1.625c0.942-1.007 1.036-2.226 0.134-3.145-0.894-0.918-2.373-0.931-3.29-0.035l-5.146 4.812c-0.551-1.871-2.046-3.817-3.573-5.106-2.227-1.87-5.447-0.632-6.645 0.664-1.407 1.441-2.522 3.003-3.403 4.46 0 0-18.074 0-18.431 0-7.645 0-13.843 6.198-13.843 13.844 0 0.226 0.07 0.658 0.07 0.658l-2.793 0.022v5.458c0 1.926 0.968 2.897 2.903 2.897h2.668c0.231-3.246 1.725-6.016 4.467-8.3 2.748-2.277 5.821-3.416 9.226-3.416s6.498 1.139 9.284 3.416c2.784 2.284 4.292 5.054 4.525 8.3h33.494c0.235-3.246 1.741-6.016 4.527-8.3 2.783-2.277 5.88-3.416 9.282-3.416 3.405 0 6.478 1.139 9.226 3.416 2.745 2.284 4.238 5.054 4.469 8.3h2.667c1.936 0 2.905-0.972 2.905-2.897v-5.458H-249.144z" fill="#00aeef" data-fill-palette-color="accent"></path></g></g></svg></g></svg></g><g><rect width="146.4024919674116" height="3.0412165789376155" y="42.56460749382066" x="249.11750803258838" fill="#00aeef" data-fill-palette-color="accent"></rect><rect width="146.4024919674116" height="3.0412165789376155" y="42.56460749382066" x="0" fill="#00aeef" data-fill-palette-color="accent"></rect><rect width="146.4024919674116" height="3.0412165789376155" y="36.48217433594543" x="249.11750803258838" fill="#00aeef" data-fill-palette-color="accent"></rect><rect width="146.4024919674116" height="3.0412165789376155" y="36.48217433594543" x="0" fill="#00aeef" data-fill-palette-color="accent"></rect></g></svg></g><defs></defs></svg><rect width="395.52" height="88.29058572005115" fill="none" stroke="none" visibility="hidden"></rect></g></svg></g></svg>