<svg xmlns="http://www.w3.org/2000/svg" version="1.1" xmlns:xlink="http://www.w3.org/1999/xlink" xmlns:svgjs="http://svgjs.dev/svgjs" width="1000" height="999" viewBox="0 0 1000 999"><g transform="matrix(1,0,0,1,-0.215743440233382,-0.21552769679306039)"><svg viewBox="0 0 343 343" data-background-color="#fafafa" preserveAspectRatio="xMidYMid meet" height="999" width="1000" xmlns="http://www.w3.org/2000/svg" xmlns:xlink="http://www.w3.org/1999/xlink"><g id="tight-bounds" transform="matrix(1,0,0,1,0.0740000000000407,0.07400000000001228)"><svg viewBox="0 0 342.85155851775386 342.85155851775386" height="342.85155851775386" width="342.85155851775386"><g><svg></svg></g><g><svg viewBox="0 0 342.85155851775386 342.85155851775386" height="342.85155851775386" width="342.85155851775386"><g><path d="M0 171.426c0-94.676 76.75-171.426 171.426-171.426 94.676 0 171.426 76.75 171.426 171.426 0 94.676-76.75 171.426-171.426 171.426-94.676 0-171.426-76.75-171.426-171.426zM171.426 341.173c93.749 0 169.747-75.999 169.747-169.747 0-93.749-75.999-169.747-169.747-169.748-93.749 0-169.747 75.999-169.748 169.748 0 93.749 75.999 169.747 169.748 169.747z" data-fill-palette-color="tertiary" fill="#ffffff" stroke="transparent"></path><ellipse rx="164.56874808852186" ry="164.56874808852186" cx="171.42577925887693" cy="171.42577925887693" fill="#ffffff" stroke="transparent" stroke-width="0" fill-opacity="1" data-fill-palette-color="tertiary"></ellipse></g><g transform="matrix(1,0,0,1,64.84655864529837,147.06400888263727)"><svg viewBox="0 0 213.1584412271571 48.72354075247931" height="48.72354075247931" width="213.1584412271571"><g><svg viewBox="0 0 213.1584412271571 48.72354075247931" height="48.72354075247931" width="213.1584412271571"><g><svg viewBox="0 0 213.1584412271571 48.72354075247931" height="48.72354075247931" width="213.1584412271571"><g transform="matrix(1,0,0,1,0,30.1131028765432)"><svg viewBox="0 0 213.1584412271571 18.61043787593611" height="18.61043787593611" width="213.1584412271571"><g id="textblocktransform"><svg viewBox="0 0 213.1584412271571 18.61043787593611" height="18.61043787593611" width="213.1584412271571" id="textblock"><g><svg viewBox="0 0 213.1584412271571 18.61043787593611" height="18.61043787593611" width="213.1584412271571"><g transform="matrix(1,0,0,1,0,0)"><svg width="213.1584412271571" viewBox="2.27 -40.43 483.17 42.19" height="18.61043787593611" data-palette-color="#00aeef"><path d="M15.55-18.36L15.55-20.12 26.15-20.12Q28.56-20.12 30.24-21.68 31.91-23.24 31.91-26.12L31.91-26.12Q31.91-28.25 30.15-29.94 28.39-31.64 26.15-31.64L26.15-31.64 11.06-31.64 11.06 0 9.3 0 9.3-33.4 26.15-33.4Q29.13-33.4 31.4-31.19 33.67-28.98 33.67-26.12L33.67-26.12Q33.67-22.61 31.47-20.48 29.27-18.36 26.15-18.36L26.15-18.36 15.55-18.36ZM15.55-14.84L15.55-16.6 26.15-16.6Q29.96-16.6 32.69-19.27 35.42-21.95 35.42-26.12L35.42-26.12Q35.42-29.71 32.63-32.43 29.83-35.16 26.15-35.16L26.15-35.16 7.54-35.16 7.54 0 5.79 0 5.79-36.91 26.15-36.91Q29.05-36.91 31.6-35.42 34.16-33.94 35.67-31.43 37.18-28.93 37.18-26.12L37.18-26.12Q37.18-21.31 33.92-18.08 30.66-14.84 26.15-14.84L26.15-14.84 15.55-14.84ZM15.55-11.33L15.55-13.09 26.15-13.09Q29.57-13.09 32.5-14.77 35.42-16.46 37.18-19.47 38.94-22.49 38.94-26.12L38.94-26.12Q38.94-29.42 37.19-32.31 35.45-35.21 32.5-36.94 29.54-38.67 26.15-38.67L26.15-38.67 4.03-38.67 4.03 0 2.27 0 2.27-40.43 26.15-40.43Q29.98-40.43 33.35-38.46 36.72-36.5 38.71-33.19 40.7-29.88 40.7-26.12L40.7-26.12Q40.7-21.78 38.83-18.48 36.96-15.19 33.76-13.33L33.76-13.33 38.31 0 36.45 0 32.1-12.5Q31.13-12.11 30.62-11.96L30.62-11.96 34.69 0 32.84 0 28.86-11.55Q28.64-11.5 27.29-11.38L27.29-11.38 31.08 0 29.22 0 25.49-11.33 23.9-11.33 27.47 0 25.61 0 22.02-11.33 15.55-11.33ZM14.58-28.13L14.58 0 12.82 0 12.82-29.88 26.15-29.88Q27.78-29.88 28.97-28.77 30.15-27.66 30.15-26.12L30.15-26.12Q30.15-21.88 26.15-21.88L26.15-21.88 15.55-21.88 15.55-23.63 26.15-23.63Q27.2-23.63 27.8-24.18 28.39-24.73 28.39-26.12L28.39-26.12Q28.39-26.98 27.75-27.55 27.1-28.13 26.15-28.13L26.15-28.13 14.58-28.13ZM55 0L55-35.16 56.76-35.16 56.76 0 55 0ZM51.49 0L51.49-35.16 53.24-35.16 53.24 0 51.49 0ZM47.97 0L47.97-35.16 49.73-35.16 49.73 0 47.97 0ZM44.46 0L44.46-35.16 46.21-35.16 46.21 0 44.46 0ZM81.64-10.55L71.89-10.55 71.89-24.61Q71.89-24.61 81.64-24.61L81.64-24.61Q84.35-24.61 86.29-22.56 88.23-20.51 88.23-17.63L88.23-17.63Q88.23-14.65 86.3-12.6 84.37-10.55 81.64-10.55L81.64-10.55ZM73.65-22.85L73.65-12.3 81.64-12.3Q83.61-12.3 85.02-13.84 86.42-15.38 86.42-17.63L86.42-17.63Q86.42-19.78 85.02-21.31 83.61-22.85 81.64-22.85L81.64-22.85 73.65-22.85ZM70.14-26.37L70.14-8.79 81.64-8.79Q85.1-8.79 87.57-11.36 90.03-13.94 90.03-17.63L90.03-17.63Q90.03-21.24 87.56-23.8 85.08-26.37 81.64-26.37L81.64-26.37 70.14-26.37ZM81.64-7.03L68.38-7.03 68.38-28.13 81.64-28.13Q85.81-28.13 88.83-25.04 91.84-21.95 91.84-17.63L91.84-17.63Q91.84-13.21 88.84-10.12 85.83-7.03 81.64-7.03L81.64-7.03ZM66.62-29.88L66.62-5.27 81.64-5.27Q84.86-5.27 87.62-6.91 90.38-8.54 92.01-11.4 93.65-14.26 93.65-17.63L93.65-17.63Q93.65-20.92 92.01-23.75 90.38-26.59 87.6-28.23 84.83-29.88 81.64-29.88L81.64-29.88 66.62-29.88ZM81.64-3.52L64.86-3.52 64.86-31.64 81.64-31.64Q85.32-31.64 88.51-29.76 91.69-27.88 93.57-24.65 95.45-21.41 95.45-17.63L95.45-17.63Q95.45-13.79 93.57-10.53 91.69-7.28 88.51-5.4 85.32-3.52 81.64-3.52L81.64-3.52ZM63.11-33.4L63.11-1.76 81.64-1.76Q85.81-1.76 89.4-3.87 92.99-5.98 95.12-9.64 97.26-13.31 97.26-17.63L97.26-17.63Q97.26-21.88 95.12-25.52 92.99-29.17 89.39-31.29 85.79-33.4 81.64-33.4L81.64-33.4 63.11-33.4ZM81.64 0L81.64 0 61.35 0 61.35-35.16 81.64-35.16Q86.27-35.16 90.29-32.8 94.31-30.44 96.69-26.4 99.07-22.36 99.07-17.63L99.07-17.63Q99.07-14.04 97.66-10.77 96.26-7.5 93.9-5.14 91.55-2.78 88.33-1.39 85.1 0 81.64 0ZM111.78-35.16L111.78 0 110.03 0 110.03-35.16 111.78-35.16ZM108.27-35.16L108.27 0 106.51 0 106.51-35.16 108.27-35.16ZM104.75-35.16L104.75 0 103 0 103-35.16 104.75-35.16ZM115.3-13.21L115.3-8.79 132.12-8.79 132.12-7.03 115.3-7.03 115.3-5.27 132.12-5.27 132.12-3.52 115.3-3.52 115.3-1.76 132.12-1.76 132.12 0 113.54 0 113.54-35.16 132.12-35.16 132.12-33.4 115.3-33.4 115.3-31.64 132.12-31.64 132.12-29.88 115.3-29.88 115.3-28.13 132.12-28.13 132.12-26.37 115.3-26.37 115.3-22 131.14-22 131.14-20.24 115.3-20.24 115.3-18.48 131.14-18.48 131.14-16.72 115.3-16.72 115.3-14.97 131.14-14.97 131.14-13.21 115.3-13.21ZM149.62-18.36L149.62-20.12 160.22-20.12Q162.64-20.12 164.31-21.68 165.98-23.24 165.98-26.12L165.98-26.12Q165.98-28.25 164.22-29.94 162.47-31.64 160.22-31.64L160.22-31.64 145.13-31.64 145.13 0 143.37 0 143.37-33.4 160.22-33.4Q163.2-33.4 165.47-31.19 167.74-28.98 167.74-26.12L167.74-26.12Q167.74-22.61 165.54-20.48 163.34-18.36 160.22-18.36L160.22-18.36 149.62-18.36ZM149.62-14.84L149.62-16.6 160.22-16.6Q164.03-16.6 166.76-19.27 169.5-21.95 169.5-26.12L169.5-26.12Q169.5-29.71 166.7-32.43 163.91-35.16 160.22-35.16L160.22-35.16 141.62-35.16 141.62 0 139.86 0 139.86-36.91 160.22-36.91Q163.12-36.91 165.68-35.42 168.23-33.94 169.74-31.43 171.25-28.93 171.25-26.12L171.25-26.12Q171.25-21.31 168-18.08 164.74-14.84 160.22-14.84L160.22-14.84 149.62-14.84ZM149.62-11.33L149.62-13.09 160.22-13.09Q163.64-13.09 166.57-14.77 169.5-16.46 171.25-19.47 173.01-22.49 173.01-26.12L173.01-26.12Q173.01-29.42 171.27-32.31 169.52-35.21 166.57-36.94 163.61-38.67 160.22-38.67L160.22-38.67 138.1-38.67 138.1 0 136.34 0 136.34-40.43 160.22-40.43Q164.05-40.43 167.42-38.46 170.79-36.5 172.78-33.19 174.77-29.88 174.77-26.12L174.77-26.12Q174.77-21.78 172.9-18.48 171.03-15.19 167.84-13.33L167.84-13.33 172.38 0 170.52 0 166.18-12.5Q165.2-12.11 164.69-11.96L164.69-11.96 168.76 0 166.91 0 162.93-11.55Q162.71-11.5 161.37-11.38L161.37-11.38 165.15 0 163.3 0 159.56-11.33 157.97-11.33 161.54 0 159.68 0 156.09-11.33 149.62-11.33ZM148.65-28.13L148.65 0 146.89 0 146.89-29.88 160.22-29.88Q161.86-29.88 163.04-28.77 164.22-27.66 164.22-26.12L164.22-26.12Q164.22-21.88 160.22-21.88L160.22-21.88 149.62-21.88 149.62-23.63 160.22-23.63Q161.27-23.63 161.87-24.18 162.47-24.73 162.47-26.12L162.47-26.12Q162.47-26.98 161.82-27.55 161.17-28.13 160.22-28.13L160.22-28.13 148.65-28.13ZM187.32-35.16L187.32 0 185.56 0 185.56-35.16 187.32-35.16ZM183.8-35.16L183.8 0 182.04 0 182.04-35.16 183.8-35.16ZM180.29-35.16L180.29 0 178.53 0 178.53-35.16 180.29-35.16ZM190.83-13.21L190.83-8.79 207.65-8.79 207.65-7.03 190.83-7.03 190.83-5.27 207.65-5.27 207.65-3.52 190.83-3.52 190.83-1.76 207.65-1.76 207.65 0 189.07 0 189.07-35.16 207.65-35.16 207.65-33.4 190.83-33.4 190.83-31.64 207.65-31.64 207.65-29.88 190.83-29.88 190.83-28.13 207.65-28.13 207.65-26.37 190.83-26.37 190.83-22 206.68-22 206.68-20.24 190.83-20.24 190.83-18.48 206.68-18.48 206.68-16.72 190.83-16.72 190.83-14.97 206.68-14.97 206.68-13.21 190.83-13.21ZM224.4 0L210.48-35.16 212.39-35.16 225.35-2.37 238.32-35.16 240.19-35.16 226.3 0 224.4 0ZM225.57-6.54L214.27-35.16 216.15-35.16 226.57-8.79 225.57-6.54ZM227.52-11.18L218.05-35.16 219.96-35.16 228.45-13.6 227.52-11.18ZM229.38-16.02L221.84-35.16 223.72-35.16 230.31-18.48 229.38-16.02ZM235.75 0L249.64-35.16 251.55-35.16 237.63 0 235.75 0ZM231.97 0L245.88-35.16 247.76-35.16 233.85 0 231.97 0ZM228.18 0L242.07-35.16 243.98-35.16 230.06 0 228.18 0ZM265.52-22.55Q263.46-20.48 263.46-17.58 263.46-14.67 265.52-12.61 267.59-10.55 270.49-10.55 273.4-10.55 275.46-12.61 277.52-14.67 277.52-17.58 277.52-20.48 275.46-22.55 273.4-24.61 270.49-24.61 267.59-24.61 265.52-22.55ZM264.28-11.36Q261.7-13.94 261.7-17.58 261.7-21.22 264.28-23.79 266.85-26.37 270.49-26.37 274.13-26.37 276.7-23.79 279.28-21.22 279.28-17.58 279.28-13.94 276.7-11.36 274.13-8.79 270.49-8.79 266.85-8.79 264.28-11.36ZM263.03-25.02Q259.94-21.92 259.94-17.58 259.94-13.23 263.03-10.13 266.12-7.03 270.49-7.03 274.86-7.03 277.95-10.13 281.04-13.23 281.04-17.58 281.04-21.92 277.95-25.02 274.86-28.13 270.49-28.13 266.12-28.13 263.03-25.02ZM259.83-11.4Q258.19-14.23 258.19-17.58 258.19-20.92 259.83-23.75 261.48-26.59 264.31-28.23 267.15-29.88 270.49-29.88 273.84-29.88 276.67-28.23 279.5-26.59 281.15-23.75 282.8-20.92 282.8-17.58 282.8-14.23 281.15-11.4 279.5-8.57 276.67-6.92 273.84-5.27 270.49-5.27 267.15-5.27 264.31-6.92 261.48-8.57 259.83-11.4ZM257.54-23.03Q256.43-20.43 256.43-17.58 256.43-14.72 257.54-12.12 258.65-9.52 260.54-7.63 262.43-5.74 265.03-4.63 267.63-3.52 270.49-3.52 273.35-3.52 275.95-4.63 278.55-5.74 280.44-7.63 282.33-9.52 283.44-12.12 284.55-14.72 284.55-17.58 284.55-20.43 283.44-23.03 282.33-25.63 280.44-27.53 278.55-29.42 275.95-30.53 273.35-31.64 270.49-31.64 267.63-31.64 265.03-30.53 262.43-29.42 260.54-27.53 258.65-25.63 257.54-23.03ZM255.93-11.43Q254.67-14.36 254.67-17.58 254.67-20.8 255.93-23.73 257.18-26.66 259.3-28.77 261.41-30.88 264.34-32.14 267.27-33.4 270.49-33.4 273.71-33.4 276.64-32.14 279.57-30.88 281.68-28.77 283.8-26.66 285.05-23.73 286.31-20.8 286.31-17.58 286.31-14.36 285.05-11.43 283.8-8.5 281.68-6.38 279.57-4.27 276.64-3.02 273.71-1.76 270.49-1.76 267.27-1.76 264.34-3.02 261.41-4.27 259.3-6.38 257.18-8.5 255.93-11.43ZM254.3-24.4Q252.91-21.14 252.91-17.58 252.91-14.01 254.3-10.75 255.7-7.5 258.05-5.14 260.41-2.78 263.67-1.39 266.93 0 270.49 0 274.05 0 277.31-1.39 280.57-2.78 282.93-5.14 285.29-7.5 286.68-10.75 288.07-14.01 288.07-17.58 288.07-21.14 286.68-24.4 285.29-27.66 282.93-30.02 280.57-32.37 277.31-33.76 274.05-35.16 270.49-35.16 266.93-35.16 263.67-33.76 260.41-32.37 258.05-30.02 255.7-27.66 254.3-24.4ZM252.69-10.07Q251.15-13.65 251.15-17.58 251.15-21.51 252.69-25.09 254.23-28.66 256.82-31.25 259.41-33.84 262.98-35.38 266.56-36.91 270.49-36.91 274.42-36.91 278-35.38 281.57-33.84 284.16-31.25 286.75-28.66 288.29-25.09 289.83-21.51 289.83-17.58 289.83-13.65 288.29-10.07 286.75-6.49 284.16-3.91 281.57-1.32 278 0.22 274.42 1.76 270.49 1.76 266.56 1.76 262.98 0.22 259.41-1.32 256.82-3.91 254.23-6.49 252.69-10.07ZM293.75 0L293.75-35.16 295.51-35.16 295.51 0 293.75 0ZM304.3 0L304.3-35.16 306.06-35.16 306.06-8.79 319.02-8.79 319.02-7.03 306.06-7.03 306.06-5.27 319.02-5.27 319.02-3.52 306.06-3.52 306.06-1.76 319.02-1.76 319.02 0 304.3 0ZM300.79 0L300.79-35.16 302.54-35.16 302.54 0 300.79 0ZM297.27 0L297.27-35.16 299.03-35.16 299.03 0 297.27 0ZM345.97-15.58L345.97-15.58 345.97-35.16 347.73-35.16 347.73-15.58Q347.73-12.79 345.6-10.79 343.46-8.79 340.46-8.79 337.45-8.79 335.32-10.79 333.18-12.79 333.18-15.58L333.18-15.58 333.18-35.16 334.94-35.16 334.94-15.58Q334.94-13.5 336.56-12.02 338.19-10.55 340.46-10.55 342.73-10.55 344.35-12.02 345.97-13.5 345.97-15.58ZM349.49-15.58L349.49-15.58 349.49-35.16 351.25-35.16 351.25-15.58Q351.25-11.3 348.07-8.29 344.9-5.27 340.46-5.27 336.01-5.27 332.84-8.29 329.67-11.3 329.67-15.58L329.67-15.58 329.67-35.16 331.42-35.16 331.42-15.58Q331.42-12.04 334.07-9.53 336.72-7.03 340.46-7.03L340.46-7.03Q344.17-7.03 346.83-9.53 349.49-12.04 349.49-15.58ZM353-15.58L353-15.58 353-35.16 354.76-35.16 354.76-15.58Q354.76-11.84 352.83-8.65 350.91-5.47 347.61-3.61 344.31-1.76 340.46-1.76 336.6-1.76 333.3-3.61 330.01-5.47 328.08-8.65 326.15-11.84 326.15-15.58L326.15-15.58 326.15-35.16 327.91-35.16 327.91-15.58Q327.91-12.33 329.59-9.55 331.28-6.76 334.17-5.14 337.06-3.52 340.46-3.52 343.85-3.52 346.74-5.14 349.64-6.76 351.32-9.55 353-12.33 353-15.58ZM356.52-15.58L356.52-15.58 356.52-35.16 358.28-35.16 358.28-15.58Q358.28-12.06 356.86-8.85 355.45-5.64 353.05-3.32 350.66-1 347.37 0.38 344.07 1.76 340.46 1.76 336.84 1.76 333.55 0.38 330.25-1 327.86-3.32 325.47-5.64 324.05-8.85 322.63-12.06 322.63-15.58L322.63-15.58 322.63-35.16 324.39-35.16 324.39-15.58Q324.39-11.38 326.55-7.79 328.71-4.2 332.41-2.1 336.11 0 340.46 0 344.8 0 348.5-2.1 352.2-4.2 354.36-7.79 356.52-11.38 356.52-15.58ZM368.92 0L368.92-25.42 370.68-25.42 370.68 0 368.92 0ZM388.26-33.4L361.89-33.4 361.89-35.16 388.26-35.16 388.26-33.4ZM388.26-29.88L361.89-29.88 361.89-31.64 388.26-31.64 388.26-29.88ZM388.26-26.37L361.89-26.37 361.89-28.13 388.26-28.13 388.26-26.37ZM379.47 0L379.47-25.42 381.23-25.42 381.23 0 379.47 0ZM375.95 0L375.95-25.42 377.71-25.42 377.71 0 375.95 0ZM372.44 0L372.44-25.42 374.19-25.42 374.19 0 372.44 0ZM402.66 0L402.66-35.16 404.42-35.16 404.42 0 402.66 0ZM399.14 0L399.14-35.16 400.9-35.16 400.9 0 399.14 0ZM395.63 0L395.63-35.16 397.38-35.16 397.38 0 395.63 0ZM392.11 0L392.11-35.16 393.87-35.16 393.87 0 392.11 0ZM422.44-22.55Q420.38-20.48 420.38-17.58 420.38-14.67 422.44-12.61 424.51-10.55 427.41-10.55 430.32-10.55 432.38-12.61 434.44-14.67 434.44-17.58 434.44-20.48 432.38-22.55 430.32-24.61 427.41-24.61 424.51-24.61 422.44-22.55ZM421.2-11.36Q418.62-13.94 418.62-17.58 418.62-21.22 421.2-23.79 423.77-26.37 427.41-26.37 431.05-26.37 433.62-23.79 436.2-21.22 436.2-17.58 436.2-13.94 433.62-11.36 431.05-8.79 427.41-8.79 423.77-8.79 421.2-11.36ZM419.95-25.02Q416.86-21.92 416.86-17.58 416.86-13.23 419.95-10.13 423.04-7.03 427.41-7.03 431.78-7.03 434.87-10.13 437.96-13.23 437.96-17.58 437.96-21.92 434.87-25.02 431.78-28.13 427.41-28.13 423.04-28.13 419.95-25.02ZM416.75-11.4Q415.11-14.23 415.11-17.58 415.11-20.92 416.75-23.75 418.4-26.59 421.23-28.23 424.07-29.88 427.41-29.88 430.76-29.88 433.59-28.23 436.42-26.59 438.07-23.75 439.72-20.92 439.72-17.58 439.72-14.23 438.07-11.4 436.42-8.57 433.59-6.92 430.76-5.27 427.41-5.27 424.07-5.27 421.23-6.92 418.4-8.57 416.75-11.4ZM414.46-23.03Q413.35-20.43 413.35-17.58 413.35-14.72 414.46-12.12 415.57-9.52 417.46-7.63 419.35-5.74 421.95-4.63 424.55-3.52 427.41-3.52 430.27-3.52 432.87-4.63 435.47-5.74 437.36-7.63 439.25-9.52 440.36-12.12 441.47-14.72 441.47-17.58 441.47-20.43 440.36-23.03 439.25-25.63 437.36-27.53 435.47-29.42 432.87-30.53 430.27-31.64 427.41-31.64 424.55-31.64 421.95-30.53 419.35-29.42 417.46-27.53 415.57-25.63 414.46-23.03ZM412.85-11.43Q411.59-14.36 411.59-17.58 411.59-20.8 412.85-23.73 414.11-26.66 416.22-28.77 418.33-30.88 421.26-32.14 424.19-33.4 427.41-33.4 430.63-33.4 433.56-32.14 436.49-30.88 438.61-28.77 440.72-26.66 441.97-23.73 443.23-20.8 443.23-17.58 443.23-14.36 441.97-11.43 440.72-8.5 438.61-6.38 436.49-4.27 433.56-3.02 430.63-1.76 427.41-1.76 424.19-1.76 421.26-3.02 418.33-4.27 416.22-6.38 414.11-8.5 412.85-11.43ZM411.22-24.4Q409.83-21.14 409.83-17.58 409.83-14.01 411.22-10.75 412.62-7.5 414.97-5.14 417.33-2.78 420.59-1.39 423.85 0 427.41 0 430.98 0 434.24-1.39 437.49-2.78 439.85-5.14 442.21-7.5 443.6-10.75 444.99-14.01 444.99-17.58 444.99-21.14 443.6-24.4 442.21-27.66 439.85-30.02 437.49-32.37 434.24-33.76 430.98-35.16 427.41-35.16 423.85-35.16 420.59-33.76 417.33-32.37 414.97-30.02 412.62-27.66 411.22-24.4ZM409.61-10.07Q408.08-13.65 408.08-17.58 408.08-21.51 409.61-25.09 411.15-28.66 413.74-31.25 416.33-33.84 419.9-35.38 423.48-36.91 427.41-36.91 431.34-36.91 434.92-35.38 438.5-33.84 441.08-31.25 443.67-28.66 445.21-25.09 446.75-21.51 446.75-17.58 446.75-13.65 445.21-10.07 443.67-6.49 441.08-3.91 438.5-1.32 434.92 0.22 431.34 1.76 427.41 1.76 423.48 1.76 419.9 0.22 416.33-1.32 413.74-3.91 411.15-6.49 409.61-10.07ZM478.41-35.16L478.41-14.18 476.65-17.38 476.65-35.16 478.41-35.16ZM481.93-35.16L481.93-8.11 480.17-11.08 480.17-35.16 481.93-35.16ZM457.71 0L457.71-20.97 459.46-17.77 459.46 0 457.71 0ZM454.19 0L454.19-27.29 455.95-24.07 455.95 0 454.19 0ZM475.16 0L454.8-35.16 456.85-35.16 477.21 0 475.16 0ZM479.26 0L458.95-35.16 461.03-35.16 481.36 0 479.26 0ZM483.37 0L463.08-35.16 465.13-35.16 483.68-3.05 483.68-35.16 485.44-35.16 485.44 0 483.37 0ZM471.04 0L452.43-32.13 452.43 0 450.68 0 450.68-35.16 452.78-35.16 473.06 0 471.04 0Z" opacity="1" transform="matrix(1,0,0,1,0,0)" fill="#000000" class="undefined-text-0" data-fill-palette-color="quaternary" id="text-0"></path></svg></g></svg></g></svg></g></svg></g><g transform="matrix(1,0,0,1,82.65219269408878,0)"><svg viewBox="0 0 47.85405583897955 25.719625144543706" height="25.719625144543706" width="47.85405583897955"><g><svg xmlns="http://www.w3.org/2000/svg" xmlns:xlink="http://www.w3.org/1999/xlink" version="1.1" x="0" y="0" viewBox="-345.99999999999994 278.69590592485895 99.64299999999992 53.55409407514111" enable-background="new -346 256 100 100" xml:space="preserve" height="25.719625144543706" width="47.85405583897955" class="icon-icon-0" data-fill-palette-color="quaternary" id="icon-0"><g fill="#00aeef" data-fill-palette-color="quaternary"><path d="M-272.348 316.183c1.828-1.791 4.051-2.701 6.609-2.701 2.631 0 4.896 0.91 6.735 2.701 1.834 1.809 2.766 4.054 2.766 6.677 0 2.561-0.93 4.788-2.766 6.619-1.833 1.84-4.099 2.771-6.735 2.771-2.559 0-4.788-0.932-6.617-2.77-1.832-1.831-2.765-4.058-2.765-6.621C-275.12 320.232-274.188 317.986-272.348 316.183zM-268.521 325.658c0.768 0.774 1.699 1.149 2.782 1.149 1.085 0 2.014-0.375 2.786-1.149 0.774-0.776 1.159-1.701 1.159-2.799 0-1.074-0.385-2.001-1.159-2.775-0.772-0.774-1.701-1.17-2.786-1.17-1.083 0-2.015 0.396-2.782 1.17-0.774 0.774-1.163 1.701-1.163 2.775C-269.684 323.957-269.295 324.882-268.521 325.658z" fill="#000000" data-fill-palette-color="quaternary"></path><path d="M-320.007 316.183c-1.827-1.791-4.052-2.701-6.61-2.701-2.63 0-4.896 0.91-6.736 2.701-1.831 1.809-2.766 4.054-2.766 6.677 0 2.561 0.932 4.788 2.766 6.619 1.834 1.84 4.099 2.771 6.736 2.771 2.559 0 4.787-0.932 6.618-2.77 1.834-1.831 2.762-4.058 2.762-6.621C-317.238 320.232-318.166 317.986-320.007 316.183zM-323.835 325.658c-0.77 0.774-1.697 1.149-2.783 1.149-1.085 0-2.013-0.375-2.786-1.149-0.776-0.776-1.159-1.701-1.159-2.799 0-1.074 0.383-2.001 1.159-2.775 0.772-0.774 1.701-1.17 2.786-1.17 1.085 0 2.013 0.396 2.783 1.17 0.774 0.774 1.161 1.701 1.161 2.775C-322.674 323.957-323.061 324.882-323.835 325.658z" fill="#000000" data-fill-palette-color="quaternary"></path><g fill="#00aeef" data-fill-palette-color="quaternary"><path d="M-299.606 291.167c2.771 0 5.03-2.254 5.03-5.027 0-2.786-2.253-5.042-5.03-5.042-2.784 0-5.036 2.253-5.036 5.042C-304.642 288.913-302.391 291.167-299.606 291.167z" fill="#000000" data-fill-palette-color="quaternary"></path><path d="M-249.144 312.303v-4.375c0 0 0-1.952 0-2.938h0.017v-0.991c0-3.422-3.012-6.191-6.731-6.191h-18.99c0 0-13.591-17.991-13.596-17.998 0 0-1.403-1.865-3.046-0.769-1.387 0.924-0.179 3.008 0.041 3.369l9.973 13.439c0.132 0.196 0.204 0.419 0.204 0.7 0 0.798-0.408 1.193-1.205 1.193l-8.263 0.011 1.66-1.625c0.942-1.007 1.036-2.226 0.134-3.145-0.894-0.918-2.373-0.931-3.29-0.035l-5.146 4.812c-0.551-1.871-2.046-3.817-3.573-5.106-2.227-1.87-5.447-0.632-6.645 0.664-1.407 1.441-2.522 3.003-3.403 4.46 0 0-18.074 0-18.431 0-7.645 0-13.843 6.198-13.843 13.844 0 0.226 0.07 0.658 0.07 0.658l-2.793 0.022v5.458c0 1.926 0.968 2.897 2.903 2.897h2.668c0.231-3.246 1.725-6.016 4.467-8.3 2.748-2.277 5.821-3.416 9.226-3.416s6.498 1.139 9.284 3.416c2.784 2.284 4.292 5.054 4.525 8.3h33.494c0.235-3.246 1.741-6.016 4.527-8.3 2.783-2.277 5.88-3.416 9.282-3.416 3.405 0 6.478 1.139 9.226 3.416 2.745 2.284 4.238 5.054 4.469 8.3h2.667c1.936 0 2.905-0.972 2.905-2.897v-5.458H-249.144z" fill="#000000" data-fill-palette-color="quaternary"></path></g></g></svg></g></svg></g><g></g></svg></g></svg></g></svg></g></svg></g><defs></defs></svg><rect width="342.85155851775386" height="342.85155851775386" fill="none" stroke="none" visibility="hidden"></rect></g></svg></g></svg>